# xmcd
#
# Track frame offsets: 
#        150
#        15995
#        32182
#        48890
#        67720
#        84274
#        99265
#        115303
#        132360
#        149318
#        164790
#        181316
#        198017
#        213769
#        231922
#        248831
#        263170
#        278768
#        295218
#
# Disc length: 4145 seconds
#
# Revision: 0
# Processed by: cddbd v1.5.2PL0 Copyright (c) Steve Scherf et al.
# Submitted via: ExactAudioCopy v1.0b3
#
DISCID=02102f13
DTITLE=Florida Georgia Line - Here's To The Good Times
DYEAR=2013
DGENRE=Country
TTITLE0=Cruise
TTITLE1=Round Here
TTITLE2=Get Your Shine On
TTITLE3=Here's To The Good Times
TTITLE4=It's Just What We Do
TTITLE5=Stay
TTITLE6=Hell Raisin Heat Of The Sumer
TTITLE7=Tell Me How You Like It
TTITLE8=Tip It Back
TTITLE9=Dayum, Baby
TTITLE10=Party People
TTITLE11=This Is How We Roll
TTITLE12=Take It Out On Me
TTITLE13=People Back Home
TTITLE14=Headphones
TTITLE15=Hands On You
TTITLE16=Cruise (Remix)
TTITLE17=What Are You Drinking About
TTITLE18=Country In My Soul
EXTD=
EXTT0=
EXTT1=
EXTT2=
EXTT3=
EXTT4=
EXTT5=
EXTT6=
EXTT7=
EXTT8=
EXTT9=
EXTT10=
EXTT11=
EXTT12=
EXTT13=
EXTT14=
EXTT15=
EXTT16=
EXTT17=
EXTT18=
PLAYORDER=
